 <svg
            width="747"
            height="582"
            viewBox="0 0 747 582"
            fill="none"
            xmlns="http://www.w3.org/2000/svg"
          >
            <path
              d="M6.15624 0.874657C7.05985 0.872153 7.96346 0.86965 8.89445 0.86707C10.4038 0.870582 10.4038 0.870582 11.9436 0.874165C13.0064 0.872711 14.0693 0.871258 15.1643 0.86976C18.7738 0.866072 22.3833 0.8696 25.9928 0.873022C28.5875 0.871871 31.1821 0.870284 33.7768 0.868295C39.4428 0.86467 45.1089 0.864801 50.7749 0.867342C59.2003 0.871111 67.6256 0.869198 76.051 0.866134C91.0951 0.860857 106.139 0.861329 121.183 0.864213C134.348 0.866724 147.513 0.867387 160.678 0.86619C161.55 0.866114 162.422 0.866037 163.32 0.865959C166.859 0.865647 170.397 0.865329 173.936 0.864999C207.159 0.861937 240.383 0.864718 273.606 0.870096C303.151 0.874842 332.697 0.874417 362.242 0.869635C395.403 0.864285 428.564 0.862154 461.725 0.865247C465.257 0.865568 468.789 0.86588 472.322 0.86619C473.191 0.866269 474.061 0.866348 474.957 0.86643C488.117 0.867569 501.277 0.866233 514.437 0.86371C529.393 0.860858 544.35 0.861552 559.307 0.866991C567.687 0.869938 576.068 0.870104 584.448 0.866345C590.688 0.863854 596.928 0.866535 603.168 0.87132C605.706 0.872445 608.244 0.87185 610.781 0.869444C614.206 0.866443 617.631 0.869481 621.056 0.874165C622.063 0.871823 623.069 0.869482 624.106 0.86707C625.461 0.870825 625.461 0.870825 626.844 0.874657C627.628 0.874724 628.413 0.874792 629.221 0.874862C631 1.00001 631 1.00001 632 2.00001C632.097 4.05028 632.122 6.10395 632.12 8.15652C632.121 8.80665 632.122 9.45679 632.123 10.1266C632.125 12.3209 632.119 14.515 632.114 16.7092C632.113 18.2759 632.113 19.8425 632.114 21.4091C632.114 25.6755 632.108 29.9418 632.101 34.2081C632.095 38.6618 632.095 43.1154 632.093 47.5691C632.09 56.0087 632.082 64.4483 632.072 72.8879C632.061 82.4935 632.055 92.0991 632.05 101.705C632.04 121.47 632.022 141.235 632 161C633.005 160.996 634.01 160.991 635.046 160.987C644.549 160.946 654.053 160.916 663.556 160.896C668.441 160.886 673.326 160.872 678.211 160.849C682.932 160.827 687.652 160.815 692.372 160.81C694.167 160.807 695.962 160.799 697.757 160.789C723.376 160.64 723.376 160.64 734 169C745.115 180.303 745.085 193.093 745.318 208.127C745.35 209.888 745.35 209.888 745.382 211.684C745.437 214.894 745.488 218.104 745.536 221.315C745.566 223.361 745.598 225.408 745.63 227.454C746.105 258.219 746.085 288.98 745.974 319.747C745.954 325.166 745.937 330.585 745.921 336.005C745.916 337.598 745.911 339.192 745.906 340.786C745.904 341.581 745.902 342.375 745.899 343.193C745.855 357.963 745.803 372.733 745.749 387.503C745.7 400.973 745.661 414.443 745.627 427.913C745.591 441.881 745.548 455.849 745.498 469.817C745.47 477.606 745.445 485.395 745.427 493.184C745.412 499.773 745.391 506.362 745.36 512.951C745.345 516.301 745.334 519.651 745.329 523.001C745.324 526.641 745.306 530.28 745.285 533.92C745.286 534.961 745.288 536.001 745.289 537.073C745.19 549.229 744.45 561.908 735.918 571.289C726.24 580.357 716.927 581.153 704.095 581.123C702.274 581.125 702.274 581.125 700.416 581.127C697.039 581.129 693.662 581.126 690.285 581.122C686.614 581.119 682.942 581.121 679.271 581.123C672.835 581.125 666.398 581.123 659.961 581.119C650.39 581.113 640.819 581.113 631.248 581.114C615.149 581.115 599.05 581.112 582.951 581.106C567.007 581.1 551.064 581.096 535.121 581.095C534.13 581.095 533.139 581.095 532.118 581.095C527.086 581.094 522.055 581.094 517.023 581.094C481.371 581.092 445.719 581.085 410.066 581.075C375.428 581.066 340.79 581.059 306.151 581.055C305.084 581.055 304.017 581.055 302.917 581.055C292.197 581.053 281.477 581.052 270.757 581.051C248.919 581.048 227.082 581.045 205.244 581.042C204.24 581.042 203.235 581.042 202.201 581.042C135.134 581.033 68.067 581.017 1.00003 581C0.982918 525.814 0.966996 470.628 0.957684 415.442C0.957546 414.626 0.957408 413.81 0.957266 412.969C0.954273 395.235 0.951503 377.501 0.948962 359.768C0.947714 351.072 0.946418 342.375 0.945096 333.679C0.944965 332.814 0.944834 331.949 0.944699 331.057C0.940434 302.982 0.93292 274.906 0.92373 246.83C0.914307 217.992 0.908144 189.153 0.906112 160.314C0.905824 156.245 0.905498 152.177 0.90515 148.108C0.905083 147.307 0.905015 146.507 0.904946 145.682C0.903762 132.765 0.899117 119.848 0.893195 106.931C0.887322 93.9608 0.885055 80.991 0.886526 68.0212C0.887289 60.3051 0.885232 52.5891 0.87923 44.8731C0.875063 39.1274 0.876052 33.3818 0.879128 27.6362C0.879554 25.2997 0.878257 22.9632 0.875144 20.6267C0.871184 17.473 0.873261 14.3193 0.876979 11.1655C0.874352 10.2392 0.871725 9.31293 0.869019 8.35857C0.889227 0.875112 0.889227 0.875111 6.15624 0.874657Z"
              fill="#F3F4F5"
            />
          </svg>