<svg width="26" height="26" viewBox="0 0 26 26" fill="none" xmlns="http://www.w3.org/2000/svg">
<path d="M26 0.999974C25.566 6.42439 24.4507 9.76056 21 14C18.75 15.375 18.75 15.375 17 16C17.1031 17.0931 17.2062 18.1862 17.3125 19.3125C17.2094 20.5294 17.1063 21.7462 17 23C14.1574 25.3816 12.7159 26 9 26C9.04125 25.0512 9.0825 24.1025 9.125 23.125C9.34974 19.8975 9.34974 19.8975 7 18C4.67725 17.5995 2.34261 17.2603 0 17C1.12452 14.028 2.22294 11.6656 4 8.99997C7.625 8.81247 7.625 8.81247 11 8.99997C11.2063 8.42247 11.4125 7.84497 11.625 7.24997C15.0915 1.57749 19.6853 0.494802 26 0.999974Z" fill="#7EAAF4"/>
</svg>
