<svg width="27" height="24" viewBox="0 0 27 24" fill="none" xmlns="http://www.w3.org/2000/svg">
<path d="M7.09371 0.867188C8.12367 0.865898 9.15363 0.864609 10.2148 0.863281C11.841 0.869082 11.841 0.869082 13.5 0.875C14.5841 0.871133 15.6682 0.867266 16.7851 0.863281C17.8151 0.86457 18.845 0.865859 19.9062 0.867188C21.3342 0.868879 21.3342 0.868879 22.791 0.870605C25 1 25 1 26 2C26.0998 4.84335 26.1387 7.65697 26.125 10.5C26.1308 11.6969 26.1308 11.6969 26.1367 12.918C26.1266 18.8734 26.1266 18.8734 25 20C22.3294 20.1412 19.6756 20.0425 17 20C17 21.32 17 22.64 17 24C14.69 24 12.38 24 9.99996 24C9.99996 22.68 9.99996 21.36 9.99996 20C8.70059 20.0206 7.40121 20.0413 6.06246 20.0625C4.7083 20.084 3.3524 20.0715 1.99996 20C0.114435 18.1145 0.867494 15.4223 0.863242 12.918C0.867109 12.12 0.870976 11.3221 0.874961 10.5C0.871094 9.70207 0.867226 8.90414 0.863242 8.08203C0.875479 0.874555 0.875479 0.874555 7.09371 0.867188ZM2.99996 3C2.99996 6.96 2.99996 10.92 2.99996 15C9.92996 15 16.86 15 24 15C24 11.04 24 7.08 24 3C17.07 3 10.14 3 2.99996 3Z" fill="#76B4F0"/>
</svg>
